<?xml version="1.0" encoding="UTF-8"?>
<!DOCTYPE svg PUBLIC "-//W3C//DTD SVG 1.1//EN" "http://www.w3.org/Graphics/SVG/1.1/DTD/svg11.dtd">
<!-- Creator: CorelDRAW X7 -->
<svg xmlns="http://www.w3.org/2000/svg" xml:space="preserve" width="30mm" height="30mm" version="1.1" style="shape-rendering:geometricPrecision; text-rendering:geometricPrecision; image-rendering:optimizeQuality; fill-rule:evenodd; clip-rule:evenodd"
viewBox="0 0 21000 29700"
 xmlns:xlink="http://www.w3.org/1999/xlink">
 <defs>
  <style type="text/css">
   <![CDATA[
    .fil0 {fill:#C7212C}
    .fil1 {fill:#EF7F1A}
    .fil2 {fill:#FEFEFE}
   ]]>
  </style>
    <mask id="id0">
  <linearGradient id="id1" gradientUnits="userSpaceOnUse" x1="10289" y1="13708.9" x2="10394.2" y2="8732.69">
   <stop offset="0" style="stop-opacity:1; stop-color:white"/>
   <stop offset="1" style="stop-opacity:0; stop-color:white"/>
  </linearGradient>
     <rect style="fill:url(#id1)" x="3080" y="4824" width="14523" height="12794"/>
    </mask>
 </defs>
 <g id="Слой_x0020_1">
  <metadata id="CorelCorpID_0Corel-Layer"/>
  <g id="_1001198464">
   <path class="fil0" d="M3080 17604l3400 4 1082 -1913 2238 -9 517 926c123,-64 1707,-2890 1930,-3297 78,-141 217,-350 272,-518l-3240 -9c-5,-197 621,-1162 769,-1425 90,-158 161,-342 276,-489 139,86 703,1201 855,1423l1092 21c-15,-218 -1300,-2355 -1461,-2646 -83,-151 -159,-292 -242,-428 -87,-141 -153,-349 -280,-436 -92,65 -135,179 -190,279 -270,495 -2598,4493 -2621,4657l3335 18c-6,157 -396,782 -488,933l-3422 15c-204,353 -941,1698 -1094,1900l-1056 12c39,-179 550,-1025 677,-1236 922,-1536 1872,-3339 2795,-4896l2100 -3669c101,60 608,1001 708,1181l3503 6130c191,325 1346,2301 1393,2480l-1159 11 -1779 -3132c-69,-121 -79,-160 -162,-202 -81,67 -369,609 -468,777 -84,143 -87,164 -6,304l1850 3219c306,48 2906,23 3399,14 -32,-180 -1579,-2838 -1786,-3200 -543,-952 -1287,-2332 -1817,-3194l-906 -1599c-319,-525 -603,-1051 -911,-1593 -306,-537 -595,-1051 -909,-1596 -311,-538 -627,-1084 -901,-1597 -156,60 -126,115 -264,359 -87,154 -151,255 -231,403 -170,313 -308,527 -462,808 -296,538 -612,1063 -908,1596 -872,1568 -1860,3219 -2725,4790 -291,529 -596,1050 -906,1595l-1359 2385c-114,200 -409,664 -438,844z"/>
   <path class="fil1" style="mask:url(#id0)" d="M3080 17604l3400 4 1082 -1913 2238 -9 517 926c123,-64 1707,-2890 1930,-3297 78,-141 217,-350 272,-518l-3240 -9c-5,-197 621,-1162 769,-1425 90,-158 161,-342 276,-489 139,86 703,1201 855,1423l1092 21c-15,-218 -1300,-2355 -1461,-2646 -83,-151 -159,-292 -242,-428 -87,-141 -153,-349 -280,-436 -92,65 -135,179 -190,279 -270,495 -2598,4493 -2621,4657l3335 18c-6,157 -396,782 -488,933l-3422 15c-204,353 -941,1698 -1094,1900l-1056 12c39,-179 550,-1025 677,-1236 922,-1536 1872,-3339 2795,-4896l2100 -3669c101,60 608,1001 708,1181l3503 6130c191,325 1346,2301 1393,2480l-1159 11 -1779 -3132c-69,-121 -79,-160 -162,-202 -81,67 -369,609 -468,777 -84,143 -87,164 -6,304l1850 3219c306,48 2906,23 3399,14 -32,-180 -1579,-2838 -1786,-3200 -543,-952 -1287,-2332 -1817,-3194l-906 -1599c-319,-525 -603,-1051 -911,-1593 -306,-537 -595,-1051 -909,-1596 -311,-538 -627,-1084 -901,-1597 -156,60 -126,115 -264,359 -87,154 -151,255 -231,403 -170,313 -308,527 -462,808 -296,538 -612,1063 -908,1596 -872,1568 -1860,3219 -2725,4790 -291,529 -596,1050 -906,1595l-1359 2385c-114,200 -409,664 -438,844z"/>
  </g>
 </g>
</svg>
